<svg xmlns="http://www.w3.org/2000/svg" xmlns:xlink="http://www.w3.org/1999/xlink" viewBox="0,0,256,256" width="96px" height="96px"><defs><linearGradient x1="25" y1="24" x2="42" y2="24" gradientUnits="userSpaceOnUse" id="color-1"><stop offset="0" stop-color="#1bb8f1"></stop><stop offset="1" stop-color="#22a5e2"></stop></linearGradient><linearGradient x1="29.53" y1="24" x2="4.68" y2="24" gradientUnits="userSpaceOnUse" id="color-2"><stop offset="0.11" stop-color="#0d62ab"></stop><stop offset="1" stop-color="#007ad9"></stop></linearGradient></defs><g fill="none" fill-rule="nonzero" stroke="none" stroke-width="1" stroke-linecap="butt" stroke-linejoin="miter" stroke-miterlimit="10" stroke-dasharray="" stroke-dashoffset="0" font-family="none" font-weight="none" font-size="none" text-anchor="none" style="mix-blend-mode: normal"><g transform="scale(5.33333,5.33333)"><path d="M41,10h-16v28h16c0.55,0 1,-0.45 1,-1v-26c0,-0.55 -0.45,-1 -1,-1z" fill="url(#color-1)"></path><path d="M25,15h14v2h-14zM25,19h14v2h-14zM25,23h14v2h-14zM25,27h14v2h-14zM25,31h14v2h-14z" fill="#ffffff"></path><path d="M27,42l-21,-4v-28l21,-4z" fill="url(#color-2)"></path><path d="M21.17,31.01h-2.72l-1.8,-8.99c-0.1,-0.48 -0.16,-1 -0.17,-1.58h-0.03c-0.04,0.64 -0.11,1.16 -0.2,1.58l-1.85,8.99h-2.83l-2.86,-14.01h2.68l1.54,9.33c0.06,0.4 0.11,0.94 0.14,1.61h0.04c0.02,-0.5 0.1,-1.05 0.22,-1.65l1.97,-9.29h2.62l1.78,9.4c0.06,0.35 0.12,0.85 0.17,1.51h0.03c0.02,-0.51 0.07,-1.03 0.16,-1.56l1.5,-9.35h2.47l-2.87,14.02z" fill="#ffffff"></path></g></g></svg>